<?xml version="1.0" encoding="UTF-8"?>
<svg xmlns="http://www.w3.org/2000/svg" version="1.1" xmlns:cc="http://creativecommons.org/ns#" xmlns:dc="http://purl.org/dc/elements/1.1/" xmlns:inkscape="http://www.inkscape.org/namespaces/inkscape" xmlns:osb="http://www.openswatchbook.org/uri/2009/osb" xmlns:rdf="http://www.w3.org/1999/02/22-rdf-syntax-ns#" xmlns:sodipodi="http://sodipodi.sourceforge.net/DTD/sodipodi-0.dtd" xmlns:svg="http://www.w3.org/2000/svg" viewBox="0 0 300 400">
  <!-- Generator: Adobe Illustrator 30.4.0, SVG Export Plug-In . SVG Version: 2.1.4 Build 226)  -->
  <defs>
    <style>
      .st0 {
        fill: #d0a900;
        fill-rule: evenodd;
      }
    </style>
  </defs>
  <g id="svg2" inkscape:version="0.91 r13725" sodipodi:docname="Pei.svg">
    <g id="_x3C_defs">
      <inkscape:path-effect id="path-effect7963" copytype="repeated_stretched" effect="skeletal" fuse_tolerance="0" is_visible="true" normal_offset="0" pattern="m -90.825902,-314.06958 23.03016,41.38503 13.798268,-41.38503 z" pattern-nodetypes="cccc" prop_scale="1" prop_units="false" scale_y_rel="false" spacing="0" tang_offset="0" vertical_pattern="false"/>
      <inkscape:path-effect id="path-effect7830" copytype="repeated_stretched" effect="skeletal" fuse_tolerance="0" is_visible="true" normal_offset="0" pattern="M -12.828427,33.715729 -17,-11 l 9.0000001,0 z" pattern-nodetypes="cccc" prop_scale="-1" prop_units="false" scale_y_rel="false" spacing="5.1" tang_offset="0" vertical_pattern="false"/>
    </g>
    <sodipodi:namedview id="base" bordercolor="#666666" borderopacity="1" inkscape:current-layer="layer1" inkscape:cx="195.95216" inkscape:cy="272.83134" inkscape:document-units="px" inkscape:guide-bbox="true" inkscape:pageopacity="0" inkscape:pageshadow="2" inkscape:window-height="1017" inkscape:window-maximized="1" inkscape:window-width="1920" inkscape:window-x="1912" inkscape:window-y="-8" inkscape:zoom="2.0219278" pagecolor="#aeffff" showgrid="true" showguides="true" units="px">
      <inkscape:grid id="grid4774" color="#3f3fff" dotted="false" empcolor="#3f3fff" empopacity="0.07843137" enabled="false" opacity="0.03921569" type="xygrid" visible="true"/>
      <sodipodi:guide id="guide8231" inkscape:color="rgb(0,0,255)" inkscape:label="" orientation="0,1" position="150,200"/>
      <sodipodi:guide id="guide8233" inkscape:color="rgb(0,0,255)" inkscape:label="" orientation="1,0" position="150,200"/>
    </sodipodi:namedview>
    <g id="layer1" inkscape:groupmode="layer" inkscape:label="Layer 1">
      <g id="g5727">
        <path id="path5703" class="st0" d="M33.16,160.4c-5.8,7.51,20.07,27.57,39.03,33.61,6.13,2.28,25.12-17.52,17.7-22.06-20.41-10.57-52.61-17.12-56.73-11.55Z" inkscape:connector-curvature="0" sodipodi:nodetypes="cccc"/>
        <path id="path5705" class="st0" d="M67.99,163.97c-23.38,87.92-16.53,78.58-56.82,132.66-6.49,16.47,14.86,30.62,25.32,24.33,14.47-9.69,30.81-20.86,41-33.41,18.51-22.79,103.52-86.13,161.02-103.9,11.58-3.58,22.37-3.06,32.94-5.35,7.94-2.26-.04-14.06-4.4-18.53-14.71-15.5-40.61-24.67-49.09-18.56-3.72,1.84,1.81,27.61-2.71,30.03-43.64,21.36-124.53,76.48-161.3,104.71-1.38.64,1.26-4.97,2.17-6.78,8.08-16.17,16.87-61.55,21.28-107.73.42-10.37-7.88-6.77-9.42,2.53h0Z" inkscape:connector-curvature="0" sodipodi:nodetypes="cccsscccccscc"/>
        <path id="path5707" class="st0" d="M112,105.35c-9.38-1-14.51,8.25-13.43,17.29.91,7.67,1.17,17.49,9.21,25.81,5.29,6.55,1.36,56.28,1.26,98.33,0,2.95-2.27,3.57-2.22,6.41,0,7.41,3.87,26.09,8.69,26.24,4.5-.22,11-7.12,11.33-17.01,2.53-46.82,6.83-108.39,10.54-116.26,4.67-9.92,12.73-7.25,13.53-16.72,1.19-13.25-17.91-21.17-38.91-24.1h0Z" inkscape:connector-curvature="0" sodipodi:nodetypes="cscscccsccc"/>
        <path id="path5725" class="st0" d="M178.7,58.65c-10.34,0-30.4,28.41-30.46,34.39.11,7.68,19.42,14.7,19.03,26.13-.37,65.23-17.5,169.62-4.39,186.69,19.23,22.98,111.3,1.75,117-2.95,9.08-7.44,13.03-14.9,9.82-22.43-3.43-8.29-71.82,10.45-101.94-.65-12.64-4.64-3.73-94.22-3.51-146.83.64-11.97,24.13-25.53,24.23-30.78.37-10.19-17.2-42.33-29.8-43.56h0Z" inkscape:connector-curvature="0" sodipodi:nodetypes="cccccccccc"/>
      </g>
    </g>
  </g>
</svg>
